<?xml version="1.0" encoding="UTF-8"?>
<svg id="Capa_2" data-name="Capa 2" xmlns="http://www.w3.org/2000/svg" viewBox="0 0 58.9375 56.80078125">
  <defs>
    <style>
      .cls-1 {
        fill: #373d3f;
      }

      .cls-1, .cls-2 {
        stroke-width: 0px;
      }

      .cls-2 {
        fill: #3acb89;
      }
    </style>
  </defs>
  <g id="Capa_1-2" data-name="Capa 1">
    <g>
      <path class="cls-2" d="M55.9375,22.5869140625c-.5366210938,0-1.0329589844.15234375-1.46875.3989257812v-1.6127929688c0-9.1796875-7.46875-16.6484375-16.6484375-16.6484375h-3.3793945312c-.1457519531-2.630859375-2.3048095703-4.724609375-4.9721679688-4.724609375s-4.8264160156,2.09375-4.9721679688,4.724609375h-3.3793945312c-9.1796875,0-16.6484375,7.46875-16.6484375,16.6484375v1.6127929688c-.4357910156-.2465820312-.9321289062-.3989257812-1.46875-.3989257812-1.6572265625,0-3,1.3427734375-3,3v10.3515625c0,1.6572265625,1.3427734375,3,3,3,.5366210938,0,1.0329589844-.15234375,1.46875-.3989257812v1.6127929688c0,9.1796875,7.46875,16.6484375,16.6484375,16.6484375h16.703125c9.1796875,0,16.6484375-7.46875,16.6484375-16.6484375v-1.6127929688c.4357910156.2465820312.9321289062.3989257812,1.46875.3989257812,1.6572265625,0,3-1.3427734375,3-3v-10.3515625c0-1.6572265625-1.3427734375-3-3-3ZM44.46875,40.15234375c0,3.666015625-2.982421875,6.6484375-6.6484375,6.6484375h-16.703125c-3.666015625,0-6.6484375-2.982421875-6.6484375-6.6484375v-18.779296875c0-3.666015625,2.982421875-6.6484375,6.6484375-6.6484375h16.703125c3.666015625,0,6.6484375,2.982421875,6.6484375,6.6484375v18.779296875Z"/>
      <path class="cls-1" d="M29.49609375,38.490234375c-2.76171875,0-5.5263671875-.6357421875-8.080078125-1.912109375l-.7890625-.39453125c-1.4814453125-.7412109375-2.08203125-2.54296875-1.341796875-4.025390625.7431640625-1.4814453125,2.5458984375-2.0791015625,4.025390625-1.341796875l.7890625.39453125c3.6142578125,1.8095703125,7.869140625,1.689453125,11.380859375-.3154296875,1.439453125-.822265625,3.271484375-.3232421875,4.0927734375,1.1162109375.822265625,1.4384765625.322265625,3.2705078125-1.1162109375,4.0927734375-2.77734375,1.5869140625-5.8662109375,2.3857421875-8.9609375,2.3857421875Z"/>
    </g>
  </g>
</svg>